<svg width="35" height="34" viewBox="0 0 35 34" fill="none" xmlns="http://www.w3.org/2000/svg">
<g id="call">
<path id="Vector" d="M29.9624 24.9125C29.9624 25.3625 29.8624 25.825 29.6499 26.275C29.4374 26.725 29.1624 27.15 28.7999 27.55C28.1874 28.225 27.5124 28.7125 26.7499 29.025C25.9999 29.3375 25.1874 29.5 24.3124 29.5C23.0374 29.5 21.6749 29.2 20.2374 28.5875C18.7999 27.975 17.3624 27.15 15.9374 26.1125C14.4999 25.0625 13.1374 23.9 11.8374 22.6125C10.5499 21.3125 9.38744 19.95 8.34994 18.525C7.32494 17.1 6.49994 15.675 5.89994 14.2625C5.29994 12.8375 4.99994 11.475 4.99994 10.175C4.99994 9.325 5.14994 8.5125 5.44994 7.7625C5.74994 7 6.22494 6.3 6.88744 5.675C7.68744 4.8875 8.56244 4.5 9.48744 4.5C9.83744 4.5 10.1874 4.575 10.4999 4.725C10.8249 4.875 11.1124 5.1 11.3374 5.425L14.2374 9.5125C14.4624 9.825 14.6249 10.1125 14.7374 10.3875C14.8499 10.65 14.9124 10.9125 14.9124 11.15C14.9124 11.45 14.8249 11.75 14.6499 12.0375C14.4874 12.325 14.2499 12.625 13.9499 12.925L12.9999 13.9125C12.8624 14.05 12.7999 14.2125 12.7999 14.4125C12.7999 14.5125 12.8124 14.6 12.8374 14.7C12.8749 14.8 12.9124 14.875 12.9374 14.95C13.1624 15.3625 13.5499 15.9 14.0999 16.55C14.6624 17.2 15.2624 17.8625 15.9124 18.525C16.5874 19.1875 17.2374 19.8 17.8999 20.3625C18.5499 20.9125 19.0874 21.2875 19.5124 21.5125C19.5749 21.5375 19.6499 21.575 19.7374 21.6125C19.8374 21.65 19.9374 21.6625 20.0499 21.6625C20.2624 21.6625 20.4249 21.5875 20.5624 21.45L21.5124 20.5125C21.8249 20.2 22.1249 19.9625 22.4124 19.8125C22.6999 19.6375 22.9874 19.55 23.2999 19.55C23.5374 19.55 23.7874 19.6 24.0624 19.7125C24.3374 19.825 24.6249 19.9875 24.9374 20.2L29.0749 23.1375C29.3999 23.3625 29.6249 23.625 29.7624 23.9375C29.8874 24.25 29.9624 24.5625 29.9624 24.9125Z" stroke="#5BC259" stroke-width="1.5" stroke-miterlimit="10"/>
</g>
</svg>
