<svg width="35" height="34" viewBox="0 0 35 34" fill="none" xmlns="http://www.w3.org/2000/svg">
<path d="M15.3999 25.7123C15.5749 25.8498 15.7499 25.9748 15.9374 26.1123C17.3624 27.1498 18.7999 27.9748 20.2374 28.5873C21.6749 29.1998 23.0374 29.4998 24.3124 29.4998C25.1874 29.4998 25.9999 29.3373 26.7499 29.0248C27.5124 28.7123 28.1874 28.2248 28.7999 27.5498C29.1624 27.1498 29.4374 26.7248 29.6499 26.2748C29.8624 25.8248 29.9624 25.3623 29.9624 24.9123C29.9624 24.5623 29.8874 24.2498 29.7624 23.9373C29.6249 23.6248 29.3999 23.3623 29.0749 23.1373L24.9374 20.1998C24.6249 19.9873 24.3374 19.8248 24.0624 19.7123C23.7874 19.5998 23.5374 19.5498 23.2999 19.5498C22.9874 19.5498 22.6999 19.6373 22.4124 19.8123C22.1249 19.9623 21.8249 20.1998 21.5124 20.5123L20.5624 21.4498C20.4249 21.5873 20.2624 21.6623 20.0499 21.6623C19.9374 21.6623 19.8374 21.6498 19.7374 21.6123C19.6499 21.5748 19.5749 21.5373 19.5124 21.5123C19.2749 21.3873 18.9999 21.2123 18.6999 20.9873" stroke="#F95A39" stroke-width="1.5" stroke-miterlimit="10" stroke-linecap="round" stroke-linejoin="round"/>
<path d="M15.9125 18.525C15.2625 17.8625 14.6625 17.2 14.1 16.55C13.55 15.9 13.1625 15.3625 12.9375 14.95C12.9125 14.875 12.875 14.8 12.8375 14.7C12.8125 14.6 12.8 14.5125 12.8 14.4125C12.8 14.2125 12.8625 14.05 13 13.9125L13.95 12.925C14.25 12.625 14.4875 12.325 14.65 12.0375C14.825 11.75 14.9125 11.45 14.9125 11.15C14.9125 10.9125 14.85 10.65 14.7375 10.3875C14.625 10.1125 14.4625 9.825 14.2375 9.5125L11.3375 5.425C11.1125 5.1 10.825 4.875 10.5 4.725C10.1875 4.575 9.8375 4.5 9.4875 4.5C8.5625 4.5 7.6875 4.8875 6.8875 5.675C6.225 6.3 5.75 7 5.45 7.7625C5.15 8.5125 5 9.325 5 10.175C5 11.475 5.3 12.8375 5.9 14.2625C6.5 15.675 7.325 17.1 8.35 18.525C9.3875 19.95 10.55 21.3125 11.8375 22.6125" stroke="#F95A39" stroke-width="1.5" stroke-miterlimit="10" stroke-linecap="round" stroke-linejoin="round"/>
<path d="M30 4.5L5 29.5" stroke="#F95A39" stroke-width="1.5" stroke-linecap="round" stroke-linejoin="round"/>
</svg>
