<svg width="19" height="12" viewBox="0 0 19 12" fill="none" xmlns="http://www.w3.org/2000/svg">
<path d="M13.3636 4.125V2.25C13.3636 1.5625 12.6682 1 11.8182 1H2.54545C1.69545 1 1 1.5625 1 2.25V9.75C1 10.4375 1.69545 11 2.54545 11H11.8182C12.6682 11 13.3636 10.4375 13.3636 9.75V7.875L16.9955 8.87498C17.4591 8.99998 18 8.68747 18 8.31247V3.8125C18 3.375 17.4591 3.06248 16.9955 3.24998L13.3636 4.125Z" stroke="#5F6A77" stroke-miterlimit="10" stroke-linecap="round" stroke-linejoin="round"/>
<path d="M5.46155 5.77344C6.01383 5.77344 6.46155 5.32572 6.46155 4.77344C6.46155 4.22115 6.01383 3.77344 5.46155 3.77344C4.90926 3.77344 4.46155 4.22115 4.46155 4.77344C4.46155 5.32572 4.90926 5.77344 5.46155 5.77344Z" stroke="#5F6A77" stroke-miterlimit="10" stroke-linecap="round" stroke-linejoin="round"/>
</svg>
