<svg width="39" height="40" viewBox="0 0 39 40" fill="none" xmlns="http://www.w3.org/2000/svg">
<g id="gallery-add">
<g id="gallery-add_2">
<path id="Vector" d="M16.1591 13.1816C14.9091 13.1816 13.8864 14.2044 13.8864 15.4544C13.8864 16.7044 14.9091 17.7271 16.1591 17.7271C17.4091 17.7271 18.4318 16.7044 18.4318 15.4544" stroke="#A0AFC1" stroke-width="1.5" stroke-linecap="round" stroke-linejoin="round"/>
<path id="Vector_2" d="M8.20456 21.1248V23.4089C8.20456 29.0907 10.4773 31.3634 16.1591 31.3634H22.9773C28.6591 31.3634 30.9318 29.0907 30.9318 23.4089V17.7271" stroke="#A0AFC1" stroke-width="1.5" stroke-linecap="round" stroke-linejoin="round"/>
<path id="Vector_3" d="M20.7046 8.63623H16.1591C10.4773 8.63623 8.20456 10.909 8.20456 16.5908" stroke="#A0AFC1" stroke-width="1.5" stroke-linecap="round" stroke-linejoin="round"/>
<path id="Vector_4" d="M23.8296 12.0449H30.0796" stroke="#A0AFC1" stroke-width="1.5" stroke-linecap="round"/>
<path id="Vector_5" d="M26.9546 15.1699V8.91992" stroke="#A0AFC1" stroke-width="1.5" stroke-linecap="round"/>
<path id="Vector_6" d="M8.96591 27.8972L14.5682 24.1358C15.4659 23.5335 16.7614 23.6017 17.5682 24.2949L17.9432 24.6244C18.8295 25.3858 20.2614 25.3858 21.1477 24.6244L25.875 20.5676C26.7614 19.8062 28.1932 19.8062 29.0796 20.5676L30.9318 22.1585" stroke="#A0AFC1" stroke-width="1.5" stroke-linecap="round" stroke-linejoin="round"/>
</g>
</g>
</svg>
