<svg width="17" height="20" viewBox="0 0 17 20" fill="none" xmlns="http://www.w3.org/2000/svg">
<path d="M16.5 5.88688C16.5 4.99095 15.8309 4.25792 15.013 4.25792C14.1952 4.25792 13.526 4.99095 13.526 5.88688V3.44344C13.526 2.54751 12.8569 1.81448 12.0391 1.81448C11.2212 1.81448 10.5521 2.54751 10.5521 3.44344V2.62896C10.5521 1.73303 9.88294 1 9.0651 1C8.24726 1 7.57812 1.73303 7.57812 2.62896V3.44344C7.57812 2.54751 6.90898 1.81448 6.09115 1.81448C5.27331 1.81448 4.60417 2.54751 4.60417 3.44344V12.4027L2.89414 11.0181C2.225 10.448 1.25846 10.6109 0.73802 11.4253C0.366275 12.0769 0.440624 12.8914 0.886718 13.4615C2.29935 15.1719 5.7194 18.5928 9.88294 18.9186C10.106 18.9186 10.329 19 10.5521 19C13.8234 19 16.5 16.0679 16.5 12.4842V5.88688Z" fill="white" stroke="#FF9900" stroke-miterlimit="10" stroke-linecap="round" stroke-linejoin="round"/>
<path d="M7.57819 3.44336V9.14472" stroke="#FF9900" stroke-miterlimit="10" stroke-linecap="round" stroke-linejoin="round"/>
<path d="M10.5519 3.44336V9.14472" stroke="#FF9900" stroke-miterlimit="10" stroke-linecap="round" stroke-linejoin="round"/>
<path d="M13.526 5.88672V9.14464" stroke="#FF9900" stroke-miterlimit="10" stroke-linecap="round" stroke-linejoin="round"/>
</svg>
