<svg width="17" height="18" viewBox="0 0 17 18" fill="none" xmlns="http://www.w3.org/2000/svg">
<path d="M6.86363 10.7455C5.77272 10.1636 5.0909 8.92727 5.0909 7.54545V4.63636C5.0909 2.6 6.5909 1 8.49999 1C10.4091 1 11.9091 2.6 11.9091 4.63636V5.36363" stroke="#5F6A77" stroke-miterlimit="10" stroke-linecap="round" stroke-linejoin="round"/>
<path d="M8 13.9333C8.21212 13.9333 8.42424 14 8.63636 14C10.404 14 11.9596 13.3333 13.1616 12.2667C14.2929 11.2 15 9.66667 15 8" stroke="#5F6A77" stroke-miterlimit="10" stroke-linecap="round" stroke-linejoin="round"/>
<path d="M2.36359 7.5459C2.36359 9.72771 3.38631 11.6914 4.88631 12.855" stroke="#5F6A77" stroke-miterlimit="10" stroke-linecap="round" stroke-linejoin="round"/>
<path d="M13 17L4 17" stroke="#5F6A77" stroke-miterlimit="10" stroke-linecap="round" stroke-linejoin="round"/>
<path d="M8.5 14.0908V16.9999" stroke="#5F6A77" stroke-miterlimit="10" stroke-linecap="round" stroke-linejoin="round"/>
<path d="M1 17L16 1" stroke="#5F6A77" stroke-miterlimit="10" stroke-linecap="round" stroke-linejoin="round"/>
</svg>
