<svg width="34" height="34" viewBox="0 0 34 34" fill="none" xmlns="http://www.w3.org/2000/svg">
<path d="M14.3818 19.6182C12.6363 18.7455 11.5454 16.8909 11.5454 14.8182V10.4545C11.5454 7.4 13.9454 5 17 5C20.0545 5 22.4545 7.4 22.4545 10.4545V11.5454" stroke="#F95A39" stroke-width="1.5" stroke-miterlimit="10" stroke-linecap="round" stroke-linejoin="round"/>
<path d="M16.0181 24.5275C16.3453 24.5275 16.6726 24.6365 16.9999 24.6365C19.7271 24.6365 22.1271 23.5457 23.9817 21.8002C25.7271 20.0547 26.8181 17.5456 26.8181 14.8184" stroke="#F95A39" stroke-width="1.5" stroke-miterlimit="10" stroke-linecap="round" stroke-linejoin="round"/>
<path d="M7.18164 14.8184C7.18164 18.0911 8.818 21.0366 11.218 22.782" stroke="#F95A39" stroke-width="1.5" stroke-miterlimit="10" stroke-linecap="round" stroke-linejoin="round"/>
<path d="M23.5454 29H11.5454" stroke="#F95A39" stroke-width="1.5" stroke-miterlimit="10" stroke-linecap="round" stroke-linejoin="round"/>
<path d="M17 24.6362V28.9999" stroke="#F95A39" stroke-width="1.5" stroke-miterlimit="10" stroke-linecap="round" stroke-linejoin="round"/>
<path d="M5 29L29 5" stroke="#F95A39" stroke-width="1.5" stroke-miterlimit="10" stroke-linecap="round" stroke-linejoin="round"/>
</svg>
