<svg width="34" height="34" viewBox="0 0 34 34" fill="none" xmlns="http://www.w3.org/2000/svg">
<g id="setting-mini">
<g id="Group">
<path id="Vector" d="M26.6405 18.6364C26.4082 18.4182 26.2921 18.091 26.2921 17.7637C26.2921 17.5455 26.2921 17.2182 26.2921 17C26.2921 16.7818 26.2921 16.4546 26.2921 16.2364C26.2921 15.9091 26.4082 15.5818 26.6405 15.3636L28.6151 13.5091C28.9636 13.1819 29.0797 12.6363 28.8474 12.2L27.4536 9.90909C27.2213 9.47273 26.6405 9.25455 26.1759 9.36364L23.5045 10.1274C23.156 10.2364 22.8076 10.1273 22.4591 9.90909C21.9945 9.58182 21.5299 9.36369 20.9491 9.14551C20.6007 9.03642 20.3684 8.70906 20.2522 8.38179L19.5553 5.87278C19.4392 5.43642 18.9746 5 18.3938 5H15.6062C15.0254 5 14.5608 5.32733 14.4447 5.87278L13.7478 8.38179C13.6316 8.70906 13.3993 8.92733 13.0509 9.14551C12.4701 9.36369 12.0055 9.69091 11.5409 9.90909C11.1924 10.1273 10.844 10.1274 10.4955 10.1274L7.82406 9.36364C7.35946 9.25455 6.7787 9.47273 6.5464 9.90909L5.15259 12.2C4.92029 12.6363 4.92029 13.1819 5.38489 13.5091L7.35946 15.3636C7.59176 15.5818 7.70791 15.9091 7.70791 16.2364C7.70791 16.4546 7.70791 16.7818 7.70791 17C7.70791 17.2182 7.70791 17.5455 7.70791 17.7637C7.70791 18.091 7.59176 18.4182 7.35946 18.6364L5.38489 20.491C5.03644 20.8183 4.92029 21.3637 5.15259 21.8L6.5464 24.0909C6.7787 24.5273 7.35946 24.7455 7.82406 24.6364L10.4955 23.8728C10.844 23.7637 11.1924 23.8727 11.5409 24.0909C12.0055 24.4182 12.4701 24.6364 13.0509 24.8546C13.3993 24.9637 13.6316 25.2909 13.7478 25.6182L14.4447 28.1274C14.5608 28.5637 15.0254 29 15.6062 29H18.3938C18.9746 29 19.4392 28.6728 19.5553 28.1274L20.2522 25.6182C20.3684 25.2909 20.6007 25.0728 20.9491 24.8546C21.5299 24.6364 21.9945 24.3091 22.4591 24.0909C22.8076 23.8727 23.156 23.8728 23.5045 23.8728L26.1759 24.6364C26.6405 24.7455 27.2213 24.5273 27.4536 24.0909L28.8474 21.8C29.0797 21.3637 29.0797 20.8183 28.6151 20.491L26.6405 18.6364Z" stroke="#175EF1" stroke-width="1.5" stroke-miterlimit="10" stroke-linecap="round" stroke-linejoin="round"/>
<path id="Vector_2" d="M17 20.1639C18.9245 20.1639 20.4845 18.6986 20.4845 16.8911C20.4845 15.0837 18.9245 13.6184 17 13.6184C15.0756 13.6184 13.5155 15.0837 13.5155 16.8911C13.5155 18.6986 15.0756 20.1639 17 20.1639Z" stroke="#175EF1" stroke-width="1.5" stroke-miterlimit="10" stroke-linecap="round" stroke-linejoin="round"/>
</g>
</g>
</svg>
