<svg xmlns="http://www.w3.org/2000/svg" width="34" height="34" viewBox="0 0 34 34" fill="none">
<path d="M28.3183 19.0455C28.0456 18.7727 27.9092 18.3637 27.9092 17.9546C27.9092 17.6819 27.9092 17.2727 27.9092 17C27.9092 16.7273 27.9092 16.3182 27.9092 16.0455C27.9092 15.6364 28.0456 15.2273 28.3183 14.9545L30.6365 12.6364C31.0456 12.2273 31.1819 11.5454 30.9092 11L29.2728 8.13636C29.0001 7.59091 28.3183 7.31818 27.7728 7.45455L24.6365 8.40919C24.2274 8.54555 23.8183 8.40909 23.4092 8.13636C22.8637 7.72727 22.3183 7.45461 21.6365 7.18188C21.2274 7.04552 20.9546 6.63633 20.8183 6.22724L20.0001 3.09098C19.8637 2.54552 19.3183 2 18.6365 2H15.3637C14.6819 2 14.1365 2.40916 14.0001 3.09098L13.1819 6.22724C13.0456 6.63633 12.7728 6.90916 12.3637 7.18188C11.6819 7.45461 11.1365 7.86364 10.591 8.13636C10.1819 8.40909 9.77283 8.40919 9.36374 8.40919L6.22737 7.45455C5.68192 7.31818 5.0001 7.59091 4.72737 8.13636L3.09101 11C2.81828 11.5454 2.81828 12.2273 3.36373 12.6364L5.68192 14.9545C5.95464 15.2273 6.09101 15.6364 6.09101 16.0455C6.09101 16.3182 6.09101 16.7273 6.09101 17C6.09101 17.2727 6.09101 17.6819 6.09101 17.9546C6.09101 18.3637 5.95464 18.7727 5.68192 19.0455L3.36373 21.3637C2.95464 21.7728 2.81828 22.4546 3.09101 23L4.72737 25.8636C5.0001 26.4091 5.68192 26.6818 6.22737 26.5455L9.36374 25.591C9.77283 25.4546 10.1819 25.5909 10.591 25.8636C11.1365 26.2727 11.6819 26.5456 12.3637 26.8183C12.7728 26.9546 13.0456 27.3637 13.1819 27.7728L14.0001 30.9092C14.1365 31.4546 14.6819 32 15.3637 32H18.6365C19.3183 32 19.8637 31.591 20.0001 30.9092L20.8183 27.7728C20.9546 27.3637 21.2274 27.091 21.6365 26.8183C22.3183 26.5456 22.8637 26.1364 23.4092 25.8636C23.8183 25.5909 24.2274 25.591 24.6365 25.591L27.7728 26.5455C28.3183 26.6818 29.0001 26.4091 29.2728 25.8636L30.9092 23C31.1819 22.4546 31.1819 21.7728 30.6365 21.3637L28.3183 19.0455Z" stroke="#175EF1" stroke-width="1.8" stroke-miterlimit="10" stroke-linecap="round" stroke-linejoin="round"/>
<path d="M17.0001 20.9548C19.2594 20.9548 21.091 19.1233 21.091 16.8639C21.091 14.6046 19.2594 12.773 17.0001 12.773C14.7407 12.773 12.9092 14.6046 12.9092 16.8639C12.9092 19.1233 14.7407 20.9548 17.0001 20.9548Z" stroke="#175EF1" stroke-width="1.8" stroke-miterlimit="10" stroke-linecap="round" stroke-linejoin="round"/>
</svg>