<svg width="34" height="34" viewBox="0 0 34 34" fill="none" xmlns="http://www.w3.org/2000/svg">
<path d="M6.68182 24.8635H5.45455C4.10455 24.8635 3 23.9226 3 22.7726V10.2271C3 9.07714 4.10455 8.13623 5.45455 8.13623H20.1818C21.5318 8.13623 22.6364 9.07714 22.6364 10.2271V11.2726" stroke="#F95A39" stroke-width="1.5" stroke-miterlimit="10" stroke-linecap="round" stroke-linejoin="round"/>
<path d="M29.3863 11.7954C29.7545 12.0045 30 12.3182 30 12.7363V20.2636C30 20.9954 29.1409 21.5181 28.4045 21.309L22.6363 19.6363V22.7727C22.6363 23.9227 21.5318 24.8636 20.1818 24.8636H14.0454" stroke="#F95A39" stroke-width="1.5" stroke-miterlimit="10" stroke-linecap="round" stroke-linejoin="round"/>
<path d="M9.75009 15.4547C10.7668 15.4547 11.591 14.7526 11.591 13.8865C11.591 13.0205 10.7668 12.3184 9.75009 12.3184C8.73338 12.3184 7.90918 13.0205 7.90918 13.8865C7.90918 14.7526 8.73338 15.4547 9.75009 15.4547Z" stroke="#F95A39" stroke-width="1.5" stroke-miterlimit="10" stroke-linecap="round" stroke-linejoin="round"/>
<path d="M30 6L3 29" stroke="#F95A39" stroke-width="1.5" stroke-miterlimit="10" stroke-linecap="round" stroke-linejoin="round"/>
</svg>
