<svg width="34" height="34" viewBox="0 0 34 34" fill="none" xmlns="http://www.w3.org/2000/svg">
<path d="M22.6364 13.4327V10.1731C22.6364 8.97788 21.5318 8 20.1818 8H5.45455C4.10455 8 3 8.97788 3 10.1731V23.2115C3 24.4067 4.10455 25.3846 5.45455 25.3846H20.1818C21.5318 25.3846 22.6364 24.4067 22.6364 23.2115V19.9519L28.4046 21.6903C29.1409 21.9076 30 21.3643 30 20.7124V12.8894C30 12.1288 29.1409 11.5855 28.4046 11.9115L22.6364 13.4327Z" stroke="#5F6A77" stroke-width="1.5" stroke-miterlimit="10" stroke-linecap="round" stroke-linejoin="round"/>
<path d="M10.1395 16.1491C11.2149 16.1491 12.0866 15.2978 12.0866 14.2476C12.0866 13.1975 11.2149 12.3462 10.1395 12.3462C9.06414 12.3462 8.19238 13.1975 8.19238 14.2476C8.19238 15.2978 9.06414 16.1491 10.1395 16.1491Z" stroke="#5F6A77" stroke-width="1.5" stroke-miterlimit="10" stroke-linecap="round" stroke-linejoin="round"/>
</svg>
